# xmcd
#
# Track frame offsets:
#	150
#	6324
#	22083
#	43216
#	66942
#	87178
#	119184
#	142514
#	165180
#
# Disc length: 2603 seconds
#
# Revision: 2
# Processed by: cddbd v1.5.1PL2 Copyright (c) Steve Scherf et al.
# Submitted via: EasyCDDAExtractor 8.0.2.1
#
DISCID=730a2909
DTITLE=Dio - Forum Montreal 06-09-85 Disc 1
DYEAR=1985
DGENRE=Hard Rock
TTITLE0=Intro
TTITLE1=King Of Rock and Roll
TTITLE2=Like The Beat Of The Heart
TTITLE3=Don't Talk To Strangers
TTITLE4=Hungry For Heaven
TTITLE5=The Last In Line
TTITLE6=Drum Solo
TTITLE7=Heaven and Hell
TTITLE8=Guitar Solo
EXTD=
EXTT0=
EXTT1=
EXTT2=
EXTT3=
EXTT4=
EXTT5=
EXTT6=
EXTT7=
EXTT8=
PLAYORDER=
